<svg data-v-fde0c5aa="" xmlns="http://www.w3.org/2000/svg" viewBox="0 0 300 300" class="iconAbove"><!----><defs data-v-fde0c5aa=""><!----></defs><rect data-v-fde0c5aa="" fill="#edeef9" x="0" y="0" width="300px" height="300px" class="logo-background-square"></rect><defs data-v-fde0c5aa=""><!----></defs><g data-v-fde0c5aa="" id="b2c2cdc2-2f2f-43fe-ad2b-1f1edc83fef0" fill="#E25476" transform="matrix(6.870748165596135,0,0,6.870748165596135,64.52789570306474,187.85714303265507)"><path d="M4.45 3.30L2.91 3.30L2.91 2.24L1.54 2.24L1.54 8.97L2.91 8.97L2.91 5.60L2.27 5.60L2.27 4.06L4.45 4.06L4.45 9.41L4.45 9.41Q4.45 9.81 4.19 10.12L4.19 10.12L4.19 10.12Q3.92 10.43 3.51 10.50L3.51 10.50L0.94 10.50L0.94 10.50Q0.53 10.43 0.27 10.12L0.27 10.12L0.27 10.12Q0 9.81 0 9.41L0 9.41L0 1.81L0 1.81Q0 1.40 0.27 1.08L0.27 1.08L0.27 1.08Q0.53 0.77 0.94 0.70L0.94 0.70L3.51 0.70L3.51 0.70Q3.92 0.77 4.19 1.08L4.19 1.08L4.19 1.08Q4.45 1.40 4.45 1.81L4.45 1.81L4.45 3.30ZM6.90 10.50L6.90 10.50L5.36 10.50L5.36 0.70L6.90 0.70L6.90 10.50ZM12.21 0.70L12.21 0.70L12.21 2.24L10.82 2.24L10.82 8.67L10.82 10.50L9.28 10.50L9.28 8.67L9.28 2.24L7.80 2.24L7.80 0.70L9.28 0.70L10.82 0.70L12.21 0.70ZM14.66 0.70L14.66 0.70L17.12 0.70L17.12 1.68L17.12 2.24L14.66 2.24L14.66 4.07L16.62 4.07L16.62 4.35L16.62 5.33L16.62 5.61L14.66 5.61L14.66 10.50L13.12 10.50L13.12 9.48L13.12 1.22L13.12 0.70L14.66 0.70ZM19.57 10.50L19.57 10.50L18.03 10.50L18.03 0.70L19.57 0.70L19.57 10.50ZM24.88 0.70L24.88 0.70L24.88 2.24L23.49 2.24L23.49 8.67L23.49 10.50L21.95 10.50L21.95 8.67L21.95 2.24L20.47 2.24L20.47 0.70L21.95 0.70L23.49 0.70L24.88 0.70Z"></path></g><defs data-v-fde0c5aa=""><!----></defs><g data-v-fde0c5aa="" id="03a1f66d-fe5a-41ae-a71b-7d2a84713242" stroke="none" fill="#E25476" transform="matrix(1.890509705603576,0,0,1.890509705603576,55.4735057548115,12.806906923406832)"><path d="M39.919 85.617h-2.474v-8.32c-1-1.307-4.533-6.146-8.292-14.045-2.716.387-10.448.904-16.788-4.203-1.445-.232-6.679-1.279-9.153-4.629-1.111-1.508-1.551-2.957-1.305-4.315a4.005 4.005 0 0 1 1.334-2.315l9.955-18.59c.29-1.481 1.479-3.968 4.257-4.12.464-.027 1.261-.208 2.112-.401 2.653-.602 6.282-1.428 8.466.316 1.092.87 1.643 2.221 1.643 4.011 0 3.213-.889 5.393-2.648 6.48-1.774 1.097-4.195.986-7.37-.348L17.84 45.376l-2.436-.433 2.387-13.446 1.479.742c3.001 1.498 5.229 1.894 6.456 1.143 1.218-.754 1.474-2.795 1.474-4.375 0-1.508-.537-1.938-.71-2.078-1.256-.998-4.334-.3-6.379.165-.991.225-1.851.42-2.522.457-1.633.089-1.972 2.153-1.986 2.24l-.136.401L5.15 49.467l-.271.174s-.445.324-.542.938c-.106.645.193 1.465.865 2.373 2.189 2.963 7.775 3.689 7.833 3.697l.363.043.28.236c6.78 5.674 15.831 3.758 15.923 3.736l.971-.213.416.898c4.364 9.375 8.611 14.691 8.655 14.744l.275.338v9.186z"></path><path d="M32.226 47.471l-.367-.292c-8.413-6.657-17.396-.051-17.483.017l-1.488-1.977c.101-.077 10.322-7.608 20.112-.285 1.996-.203 10.124-1.334 12.318-6.408l2.271.981c-3.102 7.174-14.41 7.909-14.889 7.935l-.474.029zM41.2 63.234c-2.358 0-4.151-.275-4.32-.299l-.43-.068-6.272-6.918c-8.394 3.436-15.096-3.511-15.164-3.583l1.793-1.701c.247.251 6.002 6.163 13.144 2.677l.836-.408 6.901 7.613c1.682.203 8.046.791 11.448-1.604v-6.818h2.474v7.992l-.435.373c-2.64 2.252-6.815 2.744-9.975 2.744z"></path><path d="M59.548 63.234c-3.16 0-7.34-.492-9.979-2.744l-.435-.373v-7.992h2.474v6.818c3.397 2.395 9.762 1.807 11.448 1.604l6.905-7.613.836.408c7.138 3.49 12.898-2.426 13.14-2.677l1.798 1.701c-.072.072-6.775 7.017-15.169 3.583l-6.272 6.918-.431.068c-.164.024-1.957.299-4.315.299z"></path><path d="M62.554 85.617H60.08v-9.186l.275-.342c.038-.049 4.291-5.365 8.654-14.74l.416-.896.972.211c.092.021 9.167 1.916 15.922-3.736l.281-.236.362-.043c.058-.008 5.644-.734 7.833-3.697.682-.924.98-1.754.86-2.402a1.529 1.529 0 0 0-.536-.908l-.271-.174-10.452-19.689c-.015-.08-.353-2.141-1.986-2.23-.672-.036-1.531-.232-2.522-.457-2.039-.464-5.122-1.165-6.379-.165-.174.14-.71.57-.71 2.078 0 1.58.256 3.624 1.474 4.375s3.45.355 6.456-1.143l1.479-.742 2.388 13.446-2.436.433-1.817-10.237c-3.17 1.331-5.591 1.445-7.369.348-1.759-1.087-2.648-3.267-2.648-6.48 0-1.793.551-3.141 1.644-4.011 2.184-1.744 5.818-.918 8.466-.316.846.193 1.648.375 2.112.401 2.783.152 3.972 2.638 4.262 4.12l9.95 18.59a4.01 4.01 0 0 1 1.334 2.315c.246 1.358-.193 2.808-1.305 4.315-2.475 3.35-7.708 4.396-9.153 4.629-6.34 5.107-14.066 4.59-16.787 4.203-3.76 7.895-7.292 12.734-8.293 14.045v8.321z"></path><path d="M67.749 47.485l-.493-.043c-.512-.048-12.555-1.237-15.039-7.998l2.325-.855c1.536 4.197 9.109 5.937 12.468 6.335 9.785-7.309 19.996.217 20.103.294l-1.488 1.979c-.367-.273-9.095-6.652-17.488-.019l-.388.307z"></path><path d="M50.014 41.165c-4.852 0-8.795-3.948-8.795-8.797V30.35l-.299.357c-2.677-2.228-4.161-4.803-4.407-7.654-.396-4.557 2.561-8.084 2.687-8.234l.367-.435h26.94l-.783 1.745c-1.865 4.153-4.324 6.811-6.958 8.466h.038v7.773c0 4.848-3.944 8.797-8.79 8.797zm-6.321-14.884v6.086a6.33 6.33 0 0 0 6.321 6.323c3.484 0 6.316-2.837 6.316-6.323v-6.531c-4.963 2.015-10.066 1.136-12.637.445zm-2.933-9.424c-.647.94-2.025 3.286-1.783 6.002.15 1.684.904 3.267 2.242 4.729v-4.833l1.706.693c.551.228 13.091 5.151 19.668-6.591H40.76z"></path><path d="M58.012 30.688l-.895-2.31c.513-.203 4.958-2.131 3.33-7.587l2.372-.706c1.857 6.22-2.334 9.656-4.807 10.603zM39.547 56.043h2.063v2.475h-2.063zM59.254 56.043h2.063v2.475h-2.063z"></path></g><!----></svg>