<svg width="223" height="228" viewBox="0 0 223 228" fill="none" xmlns="http://www.w3.org/2000/svg">
<g clip-path="url(#clip0_14_286)" filter="url(#filter0_d_14_286)">
<path d="M42.4546 160.503H29.1467V151.744H17.3079V207.357H29.1467V179.509H23.6162V166.784H42.4546V210.993C42.4546 213.196 41.7057 215.152 40.2078 216.86C38.6523 218.568 36.6936 219.614 34.3316 220H12.123C9.76099 219.614 7.83106 218.568 6.3332 216.86C4.77773 215.152 4 213.196 4 210.993V148.191C4 145.932 4.77773 143.921 6.3332 142.159C7.83106 140.451 9.76099 139.404 12.123 139.018H34.3316C36.6936 139.404 38.6523 140.451 40.2078 142.159C41.7057 143.921 42.4546 145.932 42.4546 148.191V160.503ZM63.6262 220H50.3183V139.018H63.6262V220ZM109.512 139.018V151.744H97.5008V204.878V220H84.1929V204.878V151.744H71.4035V139.018H84.1929H97.5008H109.512ZM130.684 139.018H151.942V147.117V151.744H130.684V166.866H147.621V169.18V177.278V179.592H130.684V220H117.376V211.571V143.315V139.018H130.684ZM173.114 220H159.806V139.018H173.114V220ZM219 139.018V151.744H206.988V204.878V220H193.68V204.878V151.744H180.891V139.018H193.68H206.988H219Z" fill="#E25476"/>
<path d="M94.4778 121.991H90.066V107.803C88.2827 105.574 81.9823 97.3221 75.2788 83.852C70.4354 84.512 56.6469 85.3936 45.3408 76.6847C42.7639 76.2891 33.4302 74.5037 29.0183 68.791C27.037 66.2194 26.2524 63.7485 26.6911 61.4327C26.9881 59.8952 27.8278 58.5017 29.07 57.485L46.8227 25.7838C47.3399 23.2582 49.4602 19.0172 54.4142 18.758C55.2417 18.7119 56.663 18.4033 58.1806 18.0742C62.9117 17.0476 69.3833 15.639 73.278 18.613C75.2253 20.0966 76.2079 22.4005 76.2079 25.4529C76.2079 30.932 74.6226 34.6495 71.4858 36.5032C68.3222 38.3739 64.0048 38.1846 58.3429 35.9097L55.1044 53.3684L50.7603 52.63L55.017 29.7008L57.6545 30.9661C63.0062 33.5206 66.9794 34.1959 69.1675 32.9152C71.3395 31.6295 71.7961 28.149 71.7961 25.4546C71.7961 22.8831 70.8384 22.1498 70.5299 21.9111C68.2901 20.2092 62.8011 21.3995 59.1543 22.1924C57.387 22.5761 55.8534 22.9086 54.6568 22.9717C51.7446 23.1235 51.1401 26.6432 51.1151 26.7916L50.8726 27.4754L32.4743 60.3447L31.991 60.6414C31.991 60.6414 31.1975 61.1939 31.0245 62.241C30.8355 63.3409 31.3687 64.7392 32.567 66.2876C36.4707 71.3404 46.4322 72.5784 46.5356 72.5921L47.183 72.6654L47.6823 73.0678C59.7731 82.7436 75.9137 79.4763 76.0778 79.4388L77.8093 79.0755L78.5512 80.6069C86.3335 96.5939 93.9072 105.659 93.9857 105.75L94.4761 106.326V121.991H94.4778Z" fill="#E25476"/>
<path d="M80.7589 56.941L80.1045 56.443C65.1016 45.091 49.0822 56.3561 48.927 56.472L46.2735 53.1007C46.4536 52.9694 64.6807 40.1269 82.1392 52.6147C85.6987 52.2685 100.193 50.3398 104.106 41.6872L108.156 43.3601C102.624 55.5938 82.4584 56.8472 81.6042 56.8915L80.7589 56.941ZM96.7622 83.8214C92.5572 83.8214 89.3598 83.3524 89.0584 83.3115L88.2916 83.1955L77.1067 71.3984C62.1377 77.2577 50.186 65.4111 50.0648 65.2883L53.2622 62.3877C53.7027 62.8157 63.9656 72.8973 76.7019 66.9527L78.1928 66.2569L90.4993 79.2393C93.4988 79.5854 104.848 80.5881 110.915 76.504V64.8774H115.326V78.506L114.551 79.1421C109.843 82.9824 102.397 83.8214 96.7622 83.8214Z" fill="#E25476"/>
<path d="M129.482 83.8213C123.847 83.8213 116.393 82.9823 111.687 79.1421L110.911 78.506V64.8774H115.323V76.504C121.381 80.5881 132.731 79.5854 135.738 79.2393L148.052 66.2569L149.543 66.9527C162.272 72.9041 172.544 62.8157 172.975 62.3876L176.181 65.2883C176.053 65.4111 164.1 77.2543 149.131 71.3984L137.946 83.1955L137.177 83.3115C136.885 83.3524 133.687 83.8213 129.482 83.8213Z" fill="#E25476"/>
<path d="M134.843 121.991H130.431V106.326L130.921 105.743C130.989 105.659 138.573 96.5939 146.354 80.6069L147.096 79.0789L148.829 79.4388C148.993 79.4746 165.177 82.7061 177.223 73.0678L177.724 72.6654L178.37 72.592C178.473 72.5784 188.435 71.3404 192.338 66.2876C193.554 64.7119 194.086 63.2966 193.872 62.1915C193.755 61.5833 193.417 61.0346 192.916 60.6431L192.433 60.3464L173.794 26.7711C173.767 26.6347 173.164 23.1201 170.252 22.9683C169.054 22.9069 167.522 22.5727 165.755 22.189C162.118 21.3978 156.62 20.2024 154.379 21.9076C154.069 22.1464 153.113 22.8797 153.113 25.4512C153.113 28.1456 153.569 31.6312 155.741 32.9118C157.913 34.1925 161.894 33.5172 167.254 30.9627L169.892 29.6974L174.15 52.6266L169.806 53.365L166.566 35.908C160.913 38.1777 156.596 38.3721 153.425 36.5014C150.288 34.6478 148.703 30.9303 148.703 25.4512C148.703 22.3936 149.685 20.0949 151.634 18.6113C155.529 15.6373 162.01 17.0459 166.732 18.0725C168.24 18.4016 169.671 18.7119 170.498 18.7563C175.461 19.0155 177.581 23.2548 178.099 25.782L195.842 57.4832C197.084 58.5004 197.924 59.8937 198.221 61.431C198.66 63.7467 197.877 66.2194 195.894 68.7893C191.48 74.502 182.148 76.2857 179.572 76.683C168.265 85.3919 154.488 84.5103 149.635 83.8503C142.93 97.3135 136.631 105.565 134.846 107.801V121.991H134.843Z" fill="#E25476"/>
<path d="M144.107 56.9648L143.228 56.8915C142.315 56.8097 120.839 54.7821 116.409 43.2527L120.555 41.7946C123.294 48.9517 136.799 51.9189 142.789 52.5976C160.239 40.1337 178.448 52.9677 178.639 53.099L175.985 56.4737C175.331 56.0082 159.766 45.1302 144.799 56.4413L144.107 56.9648Z" fill="#E25476"/>
<path d="M112.48 46.1875C103.828 46.1875 96.7961 39.455 96.7961 31.1861V27.7448L96.2629 28.3536C91.489 24.5542 88.8426 20.1631 88.4039 15.3014C87.6977 7.5304 92.971 1.51587 93.1957 1.26008L93.8501 0.51828H141.892L140.496 3.494C137.17 10.576 132.785 15.1087 128.088 17.9309H128.155V31.1861C128.155 39.4533 121.122 46.1875 112.48 46.1875ZM101.208 20.806V31.1844C101.211 34.0425 102.4 36.7827 104.513 38.8041C106.626 40.8254 109.491 41.9628 112.48 41.9669C118.693 41.9669 123.744 37.129 123.744 31.1844V20.0472C114.893 23.4833 105.793 21.9844 101.208 20.806ZM95.9776 4.73545C94.8238 6.33841 92.3664 10.339 92.798 14.9706C93.0655 17.8422 94.4101 20.5417 96.7961 23.0348V14.7932L99.8384 15.975C100.821 16.3638 123.184 24.7589 134.912 4.73545H95.9776Z" fill="#E25476"/>
<path d="M126.743 28.3212L125.147 24.382C126.062 24.0358 133.989 20.748 131.085 11.444L135.315 10.2401C138.627 20.847 131.153 26.7063 126.743 28.3212ZM93.8145 71.5586H97.4934V75.7792H93.8145V71.5586ZM128.958 71.5586H132.637V75.7792H128.958V71.5586Z" fill="#E25476"/>
</g>
<defs>
<filter id="filter0_d_14_286" x="0" y="0" width="223" height="228" filterUnits="userSpaceOnUse" color-interpolation-filters="sRGB">
<feFlood flood-opacity="0" result="BackgroundImageFix"/>
<feColorMatrix in="SourceAlpha" type="matrix" values="0 0 0 0 0 0 0 0 0 0 0 0 0 0 0 0 0 0 127 0" result="hardAlpha"/>
<feOffset dy="4"/>
<feGaussianBlur stdDeviation="2"/>
<feColorMatrix type="matrix" values="0 0 0 0 0.886275 0 0 0 0 0.329412 0 0 0 0 0.462745 0 0 0 0.55 0"/>
<feBlend mode="normal" in2="BackgroundImageFix" result="effect1_dropShadow_14_286"/>
<feBlend mode="normal" in="SourceGraphic" in2="effect1_dropShadow_14_286" result="shape"/>
</filter>
<clipPath id="clip0_14_286">
<rect width="215" height="220" fill="white" transform="translate(4)"/>
</clipPath>
</defs>
</svg>
